<!DOCTYPE svg PUBLIC "-//W3C//DTD SVG 1.1//EN" "http://www.w3.org/Graphics/SVG/1.1/DTD/svg11.dtd">
<svg version="1.1" xmlns="http://www.w3.org/2000/svg" >
<g fill="#adecec" stroke="none">
 </g>

<g fill="#ccffff" stroke="none">
 </g>

<g fill="#b0d8ff" stroke="none">
 </g>

<g fill="#99e6e6" stroke="none">
 <path d="M186 632 c-3 -6 1 -15 8 -21 8 -7 17 -8 20 -3 3 6 -1 15 -8 21 -8 7 -17 8 -20 3z"/>
 </g>

<g fill="#8bd6eb" stroke="none">
 <path d="M976 2453 c-4 -5 -12 -9 -17 -9 -5 -1 -11 -3 -14 -4 -3 -1 -9 -4 -15 -5 -5 -1 -12 -4 -15 -5 -3 -1 -9 -3 -15 -4 -5 0 -10 -4 -10 -8 0 -8 4 -9 15 -7 3 1 10 3 15 4 6 1 12 4 15 5 3 1 10 4 15 5 6 1 12 4 15 5 3 1 10 3 15 4 10 1 15 14 8 22 -3 2 -8 1 -12 -3z"/>
 <path d="M725 2346 c-11 -8 -14 -16 -8 -19 6 -4 18 0 28 7 11 8 14 16 8 19 -6 4 -18 0 -28 -7z"/>
 <path d="M1805 2351 c-3 -6 3 -15 14 -21 12 -6 22 -6 26 -1 3 6 -3 15 -14 21 -12 6 -22 6 -26 1z"/>
 <path d="M2046 2152 c-3 -6 1 -15 8 -21 8 -7 17 -8 20 -3 3 6 -1 15 -8 21 -8 7 -17 8 -20 3z"/>
 <path d="M2197 1903 c-4 -6 0 -18 7 -28 8 -11 16 -14 19 -8 4 6 0 18 -7 28 -8 11 -16 14 -19 8z"/>
 <path d="M130 1711 c-17 -34 -26 -63 -20 -66 5 -3 23 21 40 54 17 34 26 63 20 66 -5 3 -23 -21 -40 -54z"/>
 <path d="M2285 1600 c-4 -6 -3 -16 3 -22 6 -6 12 -6 17 2 4 6 3 16 -3 22 -6 6 -12 6 -17 -2z"/>
 <path d="M2289 836 c-1 -3 -2 -9 -3 -13 -1 -5 -5 -14 -9 -20 -5 -7 -5 -13 -1 -13 3 0 1 -6 -5 -14 -8 -10 -9 -16 -1 -21 5 -3 11 -4 11 -1 4 16 7 26 9 31 1 3 3 8 4 13 1 4 5 12 9 19 4 6 3 14 -3 18 -5 3 -11 4 -11 1z"/>
 </g>

<g fill="#79d0e7" stroke="none">
 <path d="M1065 2468 c-135 -22 -295 -89 -440 -186 -103 -68 -309 -278 -384 -392 -73 -109 -147 -253 -184 -357 -73 -201 -75 -521 -5 -686 68 -160 156 -261 368 -423 74 -56 164 -128 200 -159 150 -132 327 -226 470 -251 96 -17 244 -17 340 0 288 51 663 352 812 651 70 141 93 295 85 575 -10 325 -34 467 -110 648 -132 312 -403 531 -715 578 -106 16 -343 17 -437 2z"/>
 </g>
</svg>