<!DOCTYPE svg PUBLIC "-//W3C//DTD SVG 1.1//EN" "http://www.w3.org/Graphics/SVG/1.1/DTD/svg11.dtd">
<svg version="1.1" xmlns="http://www.w3.org/2000/svg" >
<g transform="translate(0.000000,136.000000) scale(0.100000,-0.100000)"
fill="#000000" stroke="none">
<path d="M489 1350 c-278 -25 -400 -110 -453 -317 -39 -148 -43 -477 -10 -657
38 -198 127 -294 321 -343 56 -15 115 -18 333 -18 296 0 353 9 462 67 95 51
151 131 185 265 26 100 26 567 0 666 -49 195 -144 283 -345 321 -100 19 -365
28 -493 16z"/>
</g>
</svg>