<!DOCTYPE svg PUBLIC "-//W3C//DTD SVG 1.1//EN" "http://www.w3.org/Graphics/SVG/1.1/DTD/svg11.dtd">
<svg version="1.1" xmlns="http://www.w3.org/2000/svg" >
<g fill="#aedbe6" stroke="none">
 <path d="M1525 3131 c-7 -12 12 -24 25 -16 11 7 4 25 -10 25 -5 0 -11 -4 -15 -9z"/>
 <path d="M1236 3083 c-4 -5 -12 -9 -17 -9 -5 -1 -11 -3 -14 -4 -3 -1 -9 -4 -15 -5 -5 -1 -12 -4 -15 -5 -3 -1 -9 -3 -15 -4 -5 0 -10 -4 -10 -8 0 -8 4 -9 15 -7 3 1 10 3 15 4 6 1 12 4 15 5 3 1 10 4 15 5 6 1 12 4 15 5 3 1 10 3 15 4 10 1 15 14 8 22 -3 2 -8 1 -12 -3z"/>
 <path d="M1266 111 c-4 -5 -2 -12 4 -16 5 -3 10 -3 10 1 0 3 7 1 15 -6 8 -7 15 -9 15 -5 0 4 6 2 14 -4 10 -8 16 -9 21 -1 3 5 4 11 1 11 -16 4 -26 7 -31 9 -3 1 -8 3 -12 4 -5 1 -13 5 -20 9 -6 4 -14 3 -17 -2z"/>
 </g>

<g fill="#9ed4e2" stroke="none">
 <path d="M1665 3131 c-7 -12 12 -24 25 -16 11 7 4 25 -10 25 -5 0 -11 -4 -15 -9z"/>
 <path d="M240 2231 c-6 -12 -6 -22 -1 -26 6 -3 15 3 21 14 6 12 6 22 1 26 -6 3 -15 -3 -21 -14z"/>
 <path d="M2885 1640 c-4 -6 -3 -16 3 -22 6 -6 12 -6 17 2 4 6 3 16 -3 22 -6 6 -12 6 -17 -2z"/>
 <path d="M2885 1380 c-4 -6 -3 -16 3 -22 6 -6 12 -6 17 2 4 6 3 16 -3 22 -6 6 -12 6 -17 -2z"/>
 <path d="M77 1204 c-4 -4 -3 -12 1 -18 4 -6 7 -14 8 -18 1 -5 3 -10 4 -13 1 -3 3 -9 4 -15 0 -5 4 -10 9 -10 4 0 10 0 13 0 4 0 1 7 -6 15 -7 8 -9 15 -5 15 4 0 1 7 -6 17 -8 9 -12 18 -11 20 6 8 -4 13 -11 7z"/>
 </g>

<g fill="#79c4d7" stroke="none">
 <path d="M2677 2524 c-9 -10 32 -86 43 -79 6 4 1 23 -10 46 -22 41 -23 43 -33 33z"/>
 <path d="M2766 2311 c-4 -5 -2 -12 4 -16 6 -4 8 -10 5 -15 -3 -5 -1 -11 4 -14 5 -4 12 -2 15 3 4 5 2 12 -4 16 -6 4 -8 10 -5 15 3 5 1 11 -4 14 -5 4 -12 2 -15 -3z"/>
 <path d="M2885 1600 c-4 -6 -3 -16 3 -22 6 -6 12 -6 17 2 4 6 3 16 -3 22 -6 6 -12 6 -17 -2z"/>
 <path d="M35 1430 c-4 -6 -3 -16 3 -22 6 -6 12 -6 17 2 4 6 3 16 -3 22 -6 6 -12 6 -17 -2z"/>
 <path d="M2885 1420 c-4 -6 -3 -16 3 -22 6 -6 12 -6 17 2 4 6 3 16 -3 22 -6 6 -12 6 -17 -2z"/>
 <path d="M137 1053 c-4 -6 0 -18 7 -28 8 -11 16 -14 19 -8 4 6 0 18 -7 28 -8 11 -16 14 -19 8z"/>
 <path d="M2755 861 c-9 -18 -11 -32 -5 -36 5 -3 16 8 25 24 9 18 11 32 5 36 -5 3 -16 -8 -25 -24z"/>
 <path d="M2441 456 c-7 -8 -8 -17 -3 -20 6 -3 15 1 21 8 7 8 8 17 3 20 -6 3 -15 -1 -21 -8z"/>
 <path d="M1885 110 c-4 -6 -10 -8 -15 -5 -5 3 -11 1 -14 -4 -4 -5 -2 -12 3 -15 5 -4 12 -2 16 4 4 6 10 8 15 5 5 -3 11 -1 14 4 4 5 2 12 -3 15 -5 4 -12 2 -16 -4z"/>
 </g>

<g fill="#bee2eb" stroke="none">
 <path d="M2165 3010 c-3 -5 12 -18 34 -30 23 -11 42 -16 46 -10 3 5 -12 18 -34 30 -23 11 -42 16 -46 10z"/>
 <path d="M1007 2994 c-38 -20 -24 -38 14 -19 16 9 27 20 24 25 -7 12 -4 13 -38 -6z"/>
 <path d="M566 2671 c-15 -16 -23 -31 -18 -35 5 -3 21 8 36 23 15 16 23 31 18 35 -5 3 -21 -8 -36 -23z"/>
 <path d="M2756 2351 c-4 -5 -2 -12 4 -16 6 -4 8 -10 5 -15 -3 -5 -1 -11 4 -14 5 -4 12 -2 15 3 4 5 2 12 -4 16 -6 4 -8 10 -5 15 3 5 1 11 -4 14 -5 4 -12 2 -15 -3z"/>
 <path d="M2885 1670 c-4 -6 -3 -16 3 -22 6 -6 12 -6 17 2 4 6 3 16 -3 22 -6 6 -12 6 -17 -2z"/>
 <path d="M2885 1350 c-4 -6 -3 -16 3 -22 6 -6 12 -6 17 2 4 6 3 16 -3 22 -6 6 -12 6 -17 -2z"/>
 <path d="M297 812 c-4 -5 9 -23 27 -41 19 -18 36 -29 39 -23 4 5 -9 23 -27 41 -19 18 -36 29 -39 23z"/>
 <path d="M2047 179 c-21 -11 -35 -24 -32 -29 4 -6 23 -1 46 10 22 12 37 25 34 30 -7 12 -2 13 -48 -11z"/>
 <path d="M1105 180 c-3 -5 12 -18 34 -30 23 -11 42 -16 46 -10 3 5 -12 18 -34 30 -23 11 -42 16 -46 10z"/>
 <path d="M1895 110 c-4 -6 -10 -8 -15 -5 -5 3 -11 1 -14 -4 -4 -5 -2 -12 3 -15 5 -4 12 -2 16 4 4 6 10 8 15 5 5 -3 11 -1 14 4 4 5 2 12 -3 15 -5 4 -12 2 -16 -4z"/>
 </g>

<g fill="#8dcddd" stroke="none">
 <path d="M1555 3130 c-3 -5 0 -13 8 -16 23 -9 112 0 110 11 -4 14 -110 19 -118 5z"/>
 <path d="M2006 3071 c-4 -5 -2 -12 4 -16 5 -3 10 -3 10 1 0 3 6 1 14 -5 10 -8 16 -9 21 -1 3 5 4 11 1 11 -3 1 -9 2 -13 3 -5 1 -13 5 -20 9 -6 4 -14 3 -17 -2z"/>
 <path d="M205 2161 c-14 -29 -21 -52 -15 -56 5 -3 21 17 35 44 14 29 21 52 15 56 -5 3 -21 -17 -35 -44z"/>
 <path d="M2885 1620 c-4 -6 -3 -16 3 -22 6 -6 12 -6 17 2 4 6 3 16 -3 22 -6 6 -12 6 -17 -2z"/>
 <path d="M35 1590 c-4 -6 -3 -16 3 -22 6 -6 12 -6 17 2 4 6 3 16 -3 22 -6 6 -12 6 -17 -2z"/>
 <path d="M2885 1400 c-4 -6 -3 -16 3 -22 6 -6 12 -6 17 2 4 6 3 16 -3 22 -6 6 -12 6 -17 -2z"/>
 <path d="M2829 1036 c-1 -3 -2 -9 -3 -13 -1 -5 -5 -13 -9 -20 -4 -6 -3 -14 3 -18 5 -3 11 -4 11 -1 1 3 2 9 3 14 1 4 5 12 9 19 4 6 3 14 -3 18 -5 3 -11 4 -11 1z"/>
 <path d="M157 1013 c-4 -6 0 -18 7 -28 8 -11 16 -14 19 -8 4 6 0 18 -7 28 -8 11 -16 14 -19 8z"/>
 <path d="M2561 576 c-7 -8 -8 -17 -3 -20 6 -3 15 1 21 8 7 8 8 17 3 20 -6 3 -15 -1 -21 -8z"/>
 </g>

<g fill="#69bcd2" stroke="none">
 <path d="M1966 3081 c-4 -5 -2 -12 4 -16 5 -3 10 -3 10 1 0 3 6 1 14 -5 10 -8 16 -9 21 -1 3 5 4 11 1 11 -3 1 -9 2 -13 3 -5 1 -13 5 -20 9 -6 4 -14 3 -17 -2z"/>
 <path d="M1216 3073 c-4 -5 -12 -9 -17 -9 -5 -1 -11 -3 -14 -4 -3 -1 -9 -3 -15 -4 -5 0 -10 -4 -10 -8 0 -5 0 -11 0 -14 0 -4 7 -1 15 6 8 7 15 9 15 5 0 -4 6 -3 13 3 6 6 15 11 20 11 8 1 11 11 5 17 -3 2 -8 1 -12 -3z"/>
 <path d="M2056 3051 c-4 -5 -2 -12 4 -16 5 -3 10 -3 10 1 0 3 6 1 14 -5 10 -8 16 -9 21 -1 3 5 4 11 1 11 -3 1 -9 2 -13 3 -5 1 -13 5 -20 9 -6 4 -14 3 -17 -2z"/>
 <path d="M2155 3010 c-3 -5 12 -18 34 -30 23 -11 42 -16 46 -10 3 5 -12 18 -34 30 -23 11 -42 16 -46 10z"/>
 <path d="M1007 2989 c-21 -11 -35 -24 -32 -29 4 -6 23 -1 46 10 22 12 37 25 34 30 -7 12 -2 13 -48 -11z"/>
 <path d="M2457 2812 c-4 -5 9 -23 27 -41 19 -18 36 -29 39 -23 4 5 -9 23 -27 41 -19 18 -36 29 -39 23z"/>
 <path d="M641 2736 c-7 -8 -8 -17 -3 -20 6 -3 15 1 21 8 7 8 8 17 3 20 -6 3 -15 -1 -21 -8z"/>
 <path d="M501 2596 c-7 -8 -8 -17 -3 -20 6 -3 15 1 21 8 7 8 8 17 3 20 -6 3 -15 -1 -21 -8z"/>
 <path d="M260 2261 c-6 -12 -6 -22 -1 -26 6 -3 15 3 21 14 6 12 6 22 1 26 -6 3 -15 -3 -21 -14z"/>
 <path d="M2875 1740 c-4 -6 -3 -16 3 -22 6 -6 12 -6 17 2 4 6 3 16 -3 22 -6 6 -12 6 -17 -2z"/>
 <path d="M2885 1577 c-9 -22 -2 -62 10 -60 6 1 11 14 13 29 4 32 -14 56 -23 31z"/>
 <path d="M34 1556 c-4 -10 -2 -22 4 -28 8 -8 13 -7 18 6 4 10 2 22 -4 28 -8 8 -13 7 -18 -6z"/>
 <path d="M2885 1477 c-9 -22 -2 -62 10 -60 6 1 11 14 13 29 4 32 -14 56 -23 31z"/>
 <path d="M35 1450 c-4 -6 -3 -16 3 -22 6 -6 12 -6 17 2 4 6 3 16 -3 22 -6 6 -12 6 -17 -2z"/>
 <path d="M77 1214 c-4 -4 -3 -12 1 -18 4 -6 7 -14 8 -18 1 -5 3 -10 4 -13 1 -3 3 -9 4 -15 0 -5 4 -10 9 -10 4 0 10 0 13 0 4 0 1 7 -6 15 -7 8 -9 15 -5 15 4 0 1 7 -6 17 -8 9 -12 18 -11 20 6 8 -4 13 -11 7z"/>
 <path d="M376 742 c-3 -6 1 -15 8 -21 8 -7 17 -8 20 -3 3 6 -1 15 -8 21 -8 7 -17 8 -20 3z"/>
 <path d="M2496 511 c-26 -27 -44 -51 -39 -54 5 -4 31 16 57 42 26 27 44 51 39 54 -5 4 -31 -16 -57 -42z"/>
 <path d="M696 492 c-3 -6 1 -15 8 -21 8 -7 17 -8 20 -3 3 6 -1 15 -8 21 -8 7 -17 8 -20 3z"/>
 <path d="M766 432 c-3 -6 1 -15 8 -21 8 -7 17 -8 20 -3 3 6 -1 15 -8 21 -8 7 -17 8 -20 3z"/>
 <path d="M1095 190 c-3 -5 17 -21 44 -35 29 -14 52 -21 56 -15 3 5 -17 21 -44 35 -29 14 -52 21 -56 15z"/>
 <path d="M2037 179 c-21 -11 -35 -24 -32 -29 4 -6 23 -1 46 10 22 12 37 25 34 30 -7 12 -2 13 -48 -11z"/>
 <path d="M1276 111 c-4 -5 -2 -12 4 -16 5 -3 10 -3 10 1 0 3 6 1 14 -5 10 -8 16 -9 21 -1 3 5 4 11 1 11 -3 1 -9 2 -13 3 -5 1 -13 5 -20 9 -6 4 -14 3 -17 -2z"/>
 <path d="M1645 61 c-7 -12 12 -24 25 -16 11 7 4 25 -10 25 -5 0 -11 -4 -15 -9z"/>
 </g>

<g fill="#d1ebf1" stroke="none">
 <path d="M1485 3130 c-8 -12 20 -24 35 -15 6 3 8 11 5 16 -8 12 -32 12 -40 -1z"/>
 <path d="M1705 3131 c-7 -12 12 -24 25 -16 11 7 4 25 -10 25 -5 0 -11 -4 -15 -9z"/>
 <path d="M1985 3080 c-3 -5 -4 -11 -1 -11 16 -4 26 -7 31 -9 3 -1 10 -4 15 -5 6 -1 12 -4 15 -5 3 -1 8 -3 13 -4 4 -1 12 -5 19 -9 6 -4 14 -3 17 2 4 5 2 12 -4 16 -5 3 -10 3 -10 -1 0 -3 -7 -1 -15 6 -8 7 -15 9 -15 5 0 -4 -7 -2 -15 5 -8 7 -15 9 -15 5 0 -4 -6 -2 -14 4 -10 8 -16 9 -21 1z"/>
 <path d="M1195 3070 c-4 -6 -10 -8 -15 -5 -5 3 -11 1 -14 -4 -4 -5 -2 -12 3 -15 5 -4 12 -2 16 4 4 6 10 8 15 5 5 -3 11 -1 14 4 4 5 2 12 -3 15 -5 4 -12 2 -16 -4z"/>
 <path d="M2125 3031 c-3 -6 3 -15 14 -21 12 -6 22 -6 26 -1 3 6 -3 15 -14 21 -12 6 -22 6 -26 1z"/>
 <path d="M1055 3016 c-11 -8 -14 -16 -8 -19 6 -4 18 0 28 7 11 8 14 16 8 19 -6 4 -18 0 -28 -7z"/>
 <path d="M955 2966 c-11 -8 -14 -16 -8 -19 6 -4 18 0 28 7 11 8 14 16 8 19 -6 4 -18 0 -28 -7z"/>
 <path d="M2396 2872 c-3 -6 1 -15 8 -21 8 -7 17 -8 20 -3 3 6 -1 15 -8 21 -8 7 -17 8 -20 3z"/>
 <path d="M611 2716 c-13 -13 -18 -26 -13 -30 5 -3 19 5 31 18 13 13 18 26 13 30 -5 3 -19 -5 -31 -18z"/>
 <path d="M521 2626 c-13 -13 -18 -26 -13 -30 5 -3 19 5 31 18 13 13 18 26 13 30 -5 3 -19 -5 -31 -18z"/>
 <path d="M2667 2554 c-9 -10 62 -146 73 -139 6 3 -6 37 -25 76 -37 72 -38 73 -48 63z"/>
 <path d="M205 2171 c-14 -29 -21 -52 -15 -56 5 -3 21 17 35 44 14 29 21 52 15 56 -5 3 -21 -17 -35 -44z"/>
 <path d="M150 2050 c-6 -11 -8 -20 -4 -20 3 0 1 -6 -5 -14 -8 -10 -9 -16 -1 -21 5 -3 11 -4 11 -1 1 3 2 9 3 14 1 4 7 17 14 29 7 13 8 24 3 28 -6 3 -15 -4 -21 -15z"/>
 <path d="M119 1966 c-1 -3 -2 -9 -3 -13 -1 -5 -5 -14 -9 -20 -5 -7 -5 -13 -1 -13 3 0 1 -7 -6 -15 -7 -8 -9 -15 -5 -15 4 0 2 -6 -4 -14 -8 -10 -9 -16 -1 -21 5 -3 11 -4 11 -1 4 16 7 26 9 31 1 3 4 10 5 15 1 6 4 12 5 15 1 3 3 8 4 13 1 4 5 12 9 19 4 6 3 14 -3 18 -5 3 -11 4 -11 1z"/>
 <path d="M2865 1890 c-4 -6 -3 -16 3 -22 6 -6 12 -6 17 2 4 6 3 16 -3 22 -6 6 -12 6 -17 -2z"/>
 <path d="M2884 1696 c-4 -10 -2 -22 4 -28 8 -8 13 -7 18 6 4 10 2 22 -4 28 -8 8 -13 7 -18 -6z"/>
 <path d="M2885 1330 c-4 -6 -3 -16 3 -22 6 -6 12 -6 17 2 4 6 3 16 -3 22 -6 6 -12 6 -17 -2z"/>
 <path d="M77 1194 c-4 -4 -3 -12 1 -18 4 -6 7 -14 8 -18 1 -5 3 -10 4 -13 1 -3 3 -9 4 -15 0 -5 4 -10 9 -10 4 0 10 0 13 0 4 0 1 7 -6 15 -7 8 -9 15 -5 15 4 0 1 7 -6 17 -8 9 -12 18 -11 20 6 8 -4 13 -11 7z"/>
 <path d="M127 1064 c-9 -10 32 -86 43 -79 6 4 1 23 -10 46 -22 41 -23 43 -33 33z"/>
 <path d="M2839 1056 c-1 -3 -2 -9 -3 -13 -1 -5 -5 -14 -9 -20 -5 -7 -5 -13 -1 -13 3 0 1 -7 -6 -15 -7 -8 -9 -15 -5 -15 4 0 2 -6 -4 -14 -8 -10 -9 -16 -1 -21 5 -3 11 -4 11 -1 4 16 7 26 9 31 1 3 4 10 5 15 1 6 4 12 5 15 1 3 3 8 4 13 1 4 5 12 9 19 4 6 3 14 -3 18 -5 3 -11 4 -11 1z"/>
 <path d="M2755 851 c-14 -29 -21 -52 -15 -56 5 -3 21 17 35 44 14 29 21 52 15 56 -5 3 -21 -17 -35 -44z"/>
 <path d="M266 842 c-3 -5 3 -17 13 -26 11 -10 22 -13 25 -8 3 5 -3 17 -13 26 -11 10 -22 13 -25 8z"/>
 <path d="M356 752 c-3 -6 1 -15 8 -21 8 -7 17 -8 20 -3 3 6 -1 15 -8 21 -8 7 -17 8 -20 3z"/>
 <path d="M426 692 c-3 -6 1 -15 8 -21 8 -7 17 -8 20 -3 3 6 -1 15 -8 21 -8 7 -17 8 -20 3z"/>
 <path d="M2601 616 c-7 -8 -8 -17 -3 -20 6 -3 15 1 21 8 7 8 8 17 3 20 -6 3 -15 -1 -21 -8z"/>
 <path d="M2501 506 c-13 -13 -18 -26 -13 -30 5 -3 19 5 31 18 13 13 18 26 13 30 -5 3 -19 -5 -31 -18z"/>
 <path d="M746 442 c-3 -6 1 -15 8 -21 8 -7 17 -8 20 -3 3 6 -1 15 -8 21 -8 7 -17 8 -20 3z"/>
 <path d="M2391 406 c-7 -8 -8 -17 -3 -20 6 -3 15 1 21 8 7 8 8 17 3 20 -6 3 -15 -1 -21 -8z"/>
 <path d="M826 372 c-3 -6 1 -15 8 -21 8 -7 17 -8 20 -3 3 6 -1 15 -8 21 -8 7 -17 8 -20 3z"/>
 <path d="M2105 206 c-11 -8 -14 -16 -8 -19 6 -4 18 0 28 7 11 8 14 16 8 19 -6 4 -18 0 -28 -7z"/>
 <path d="M1065 201 c-3 -6 3 -15 14 -21 12 -6 22 -6 26 -1 3 6 -3 15 -14 21 -12 6 -22 6 -26 1z"/>
 <path d="M1985 146 c-11 -8 -14 -16 -8 -19 6 -4 18 0 28 7 11 8 14 16 8 19 -6 4 -18 0 -28 -7z"/>
 <path d="M1185 141 c-3 -6 3 -15 14 -21 12 -6 22 -6 26 -1 3 6 -3 15 -14 21 -12 6 -22 6 -26 1z"/>
 <path d="M1286 101 c-4 -5 -2 -12 4 -16 5 -3 10 -3 10 1 0 3 6 1 14 -5 10 -8 16 -9 21 -1 3 5 4 11 1 11 -3 1 -9 2 -13 3 -5 1 -13 5 -20 9 -6 4 -14 3 -17 -2z"/>
 <path d="M1445 61 c-7 -12 12 -24 25 -16 11 7 4 25 -10 25 -5 0 -11 -4 -15 -9z"/>
 <path d="M1535 50 c-3 -5 0 -13 8 -16 23 -8 82 0 82 11 0 14 -82 19 -90 5z"/>
 </g>

<g fill="#4cb0c9" stroke="none">
 <path d="M1391 3114 c-517 -90 -1009 -522 -1242 -1090 -169 -414 -147 -794 64 -1109 59 -88 172 -196 337 -320 79 -61 187 -147 240 -193 120 -104 240 -187 355 -245 309 -154 580 -152 900 8 169 84 291 173 440 317 331 320 441 629 414 1156 -28 536 -162 906 -416 1153 -166 162 -353 260 -598 315 -100 23 -386 27 -494 8z"/>
 </g>
</svg>