<!DOCTYPE svg PUBLIC "-//W3C//DTD SVG 1.1//EN" "http://www.w3.org/Graphics/SVG/1.1/DTD/svg11.dtd">
<svg version="1.1" xmlns="http://www.w3.org/2000/svg" >
<g fill="#adeaea" stroke="none">
 </g>

<g fill="#ccffff" stroke="none">
 </g>

<g fill="#99e6e6" stroke="none">
 </g>

<g fill="#b1d8ff" stroke="none">
 <path d="M69 1896 c-1 -3 -2 -9 -3 -13 -1 -5 -5 -13 -9 -20 -4 -6 -3 -14 3 -18 5 -3 11 -4 11 -1 1 3 2 9 3 14 1 4 5 12 9 19 4 6 3 14 -3 18 -5 3 -11 4 -11 1z"/>
 </g>

<g fill="#8bd7eb" stroke="none">
 <path d="M1145 3010 c-4 -6 -10 -8 -15 -5 -5 3 -11 1 -14 -4 -4 -5 -2 -12 3 -15 5 -4 12 -2 16 4 4 6 10 8 15 5 5 -3 11 -1 14 4 4 5 2 12 -3 15 -5 4 -12 2 -16 -4z"/>
 <path d="M641 2726 c-7 -8 -8 -17 -3 -20 6 -3 15 1 21 8 7 8 8 17 3 20 -6 3 -15 -1 -21 -8z"/>
 <path d="M526 2621 c-21 -21 -34 -41 -29 -44 6 -4 27 11 47 32 21 21 34 41 29 44 -6 4 -27 -11 -47 -32z"/>
 <path d="M2737 2274 c-4 -4 -3 -12 1 -18 4 -6 7 -14 8 -18 1 -5 3 -10 4 -13 1 -3 4 -9 5 -15 1 -5 4 -12 5 -15 1 -3 3 -9 4 -15 0 -5 4 -10 9 -10 7 0 8 4 6 15 -1 3 -3 10 -4 15 -1 6 -4 12 -5 15 -1 3 -4 10 -5 15 -1 6 -4 12 -5 15 -1 3 -3 9 -4 14 -2 14 -12 22 -19 15z"/>
 <path d="M175 2141 c-9 -18 -11 -32 -5 -36 5 -3 16 8 25 24 9 18 11 32 5 36 -5 3 -16 -8 -25 -24z"/>
 <path d="M140 2071 c-6 -12 -6 -22 -1 -26 6 -3 15 3 21 14 6 12 6 22 1 26 -6 3 -15 -3 -21 -14z"/>
 <path d="M2735 821 c-14 -29 -21 -52 -15 -56 5 -3 21 17 35 44 14 29 21 52 15 56 -5 3 -21 -17 -35 -44z"/>
 <path d="M666 422 c-3 -6 1 -15 8 -21 8 -7 17 -8 20 -3 3 6 -1 15 -8 21 -8 7 -17 8 -20 3z"/>
 <path d="M2007 124 c-26 -14 -45 -29 -42 -34 4 -6 28 1 56 15 27 14 47 30 44 35 -7 12 -1 14 -58 -16z"/>
 <path d="M1216 61 c-4 -5 -2 -12 4 -16 5 -3 10 -3 10 1 0 3 7 1 15 -6 8 -7 15 -9 15 -5 0 4 6 2 14 -4 10 -8 16 -9 21 -1 3 5 4 11 1 11 -16 4 -26 7 -31 9 -3 1 -8 3 -12 4 -5 1 -13 5 -20 9 -6 4 -14 3 -17 -2z"/>
 <path d="M1866 63 c-4 -5 -12 -9 -17 -9 -5 -1 -11 -3 -14 -4 -3 -1 -9 -3 -15 -4 -5 0 -10 -4 -10 -8 0 -5 0 -11 0 -14 0 -4 7 -1 15 6 8 7 15 9 15 5 0 -4 6 -3 13 3 6 6 15 11 20 11 8 1 11 11 5 17 -3 2 -8 1 -12 -3z"/>
 </g>

<g fill="#79d0e7" stroke="none">
 <path d="M1331 3054 c-172 -23 -360 -100 -548 -226 -123 -82 -343 -293 -435 -418 -174 -236 -309 -541 -337 -761 -26 -201 -8 -438 44 -574 80 -213 194 -348 468 -553 76 -57 179 -140 230 -184 276 -239 506 -338 792 -338 201 0 321 30 503 125 145 76 274 170 404 294 179 171 300 353 363 547 51 155 68 452 44 764 -32 429 -156 754 -373 979 -186 193 -425 315 -681 347 -133 17 -346 16 -474 -2z"/>
 </g>

</svg>