<!DOCTYPE svg PUBLIC "-//W3C//DTD SVG 1.1//EN" "http://www.w3.org/Graphics/SVG/1.1/DTD/svg11.dtd">
<svg version="1.1" xmlns="http://www.w3.org/2000/svg" >
<g fill="#ccffff" stroke="none">
 <path d="M1367 74 c-38 -20 -24 -38 14 -19 16 9 27 20 24 25 -7 12 -4 13 -38 -6z"/>
 <path d="M1295 40 c-4 -6 -10 -8 -15 -5 -5 3 -12 1 -15 -5 -4 -7 3 -10 19 -8 30 5 41 14 27 22 -5 4 -12 2 -16 -4z"/>
 </g>

<g fill="#acd6fb" stroke="none">
 </g>

<g fill="#bbfafa" stroke="none">
 <path d="M196 1471 c-10 -11 -13 -22 -8 -25 5 -3 17 3 26 13 10 11 13 22 8 25 -5 3 -17 -3 -26 -13z"/>
 </g>

<g fill="#99e6e6" stroke="none">
 <path d="M1686 1512 c-3 -6 1 -15 8 -21 8 -7 17 -8 20 -3 3 6 -1 15 -8 21 -8 7 -17 8 -20 3z"/>
 </g>

<g fill="#c9d3a8" stroke="none">
 <path d="M79 1196 c-1 -3 -2 -9 -3 -13 -1 -5 -5 -13 -9 -20 -4 -6 -3 -14 3 -18 5 -3 11 -4 11 -1 1 3 2 9 3 14 1 4 5 12 9 19 4 6 3 14 -3 18 -5 3 -11 4 -11 1z"/>
 <path d="M1865 1057 c-9 -22 -2 -62 10 -60 6 1 11 14 13 29 4 32 -14 56 -23 31z"/>
 <path d="M1347 114 c-38 -20 -24 -38 14 -19 16 9 27 20 24 25 -7 12 -4 13 -38 -6z"/>
 <path d="M1135 51 c-7 -12 12 -24 25 -16 11 7 4 25 -10 25 -5 0 -11 -4 -15 -9z"/>
 </g>

<g fill="#a4d1c3" stroke="none">
 <path d="M485 1616 c-11 -8 -14 -16 -8 -19 6 -4 18 0 28 7 11 8 14 16 8 19 -6 4 -18 0 -28 -7z"/>
 <path d="M1636 1502 c-3 -5 8 -21 23 -36 16 -15 31 -23 35 -18 3 5 -8 21 -23 36 -16 15 -31 23 -35 18z"/>
 <path d="M110 1281 c-6 -12 -6 -22 -1 -26 6 -3 15 3 21 14 6 12 6 22 1 26 -6 3 -15 -3 -21 -14z"/>
 <path d="M35 1000 c-4 -6 -3 -16 3 -22 6 -6 12 -6 17 2 4 6 3 16 -3 22 -6 6 -12 6 -17 -2z"/>
 <path d="M35 910 c-4 -6 -3 -16 3 -22 6 -6 12 -6 17 2 4 6 3 16 -3 22 -6 6 -12 6 -17 -2z"/>
 <path d="M107 623 c-4 -6 0 -18 7 -28 8 -11 16 -14 19 -8 4 6 0 18 -7 28 -8 11 -16 14 -19 8z"/>
 <path d="M1650 451 c-11 -23 -16 -42 -10 -46 5 -3 18 12 30 34 11 23 16 42 10 46 -5 3 -18 -12 -30 -34z"/>
 <path d="M1600 351 c-6 -12 -6 -22 -1 -26 6 -3 15 3 21 14 6 12 6 22 1 26 -6 3 -15 -3 -21 -14z"/>
 <path d="M515 191 c-3 -6 3 -15 14 -21 12 -6 22 -6 26 -1 3 6 -3 15 -14 21 -12 6 -22 6 -26 1z"/>
 <path d="M595 151 c-3 -6 3 -15 14 -21 12 -6 22 -6 26 -1 3 6 -3 15 -14 21 -12 6 -22 6 -26 1z"/>
 </g>

<g fill="#b3d2b8" stroke="none">
 <path d="M1256 1731 c-4 -5 -2 -12 4 -16 5 -3 10 -3 10 1 0 3 6 1 14 -5 10 -8 16 -9 21 -1 3 5 4 11 1 11 -3 1 -9 2 -13 3 -5 1 -13 5 -20 9 -6 4 -14 3 -17 -2z"/>
 <path d="M686 1693 c-4 -5 -12 -9 -17 -9 -5 -1 -11 -3 -14 -4 -3 -1 -9 -3 -15 -4 -5 0 -10 -4 -10 -8 0 -5 0 -11 0 -14 0 -4 7 -1 15 6 8 7 15 9 15 5 0 -4 6 -3 13 3 6 6 15 11 20 11 8 1 11 11 5 17 -3 2 -8 1 -12 -3z"/>
 <path d="M445 1596 c-11 -8 -14 -16 -8 -19 6 -4 18 0 28 7 11 8 14 16 8 19 -6 4 -18 0 -28 -7z"/>
 <path d="M1807 1283 c-4 -6 0 -18 7 -28 8 -11 16 -14 19 -8 4 6 0 18 -7 28 -8 11 -16 14 -19 8z"/>
 <path d="M1836 1211 c-4 -5 -2 -12 4 -16 6 -4 8 -10 5 -15 -3 -5 -1 -11 4 -14 5 -4 12 -2 15 3 4 5 2 12 -4 16 -6 4 -8 10 -5 15 3 5 1 11 -4 14 -5 4 -12 2 -15 -3z"/>
 <path d="M1865 1080 c-4 -6 -3 -16 3 -22 6 -6 12 -6 17 2 4 6 3 16 -3 22 -6 6 -12 6 -17 -2z"/>
 <path d="M1865 1000 c-4 -6 -3 -16 3 -22 6 -6 12 -6 17 2 4 6 3 16 -3 22 -6 6 -12 6 -17 -2z"/>
 <path d="M35 978 c-9 -22 -2 -68 10 -71 14 -3 19 63 6 76 -7 7 -12 5 -16 -5z"/>
 <path d="M1775 691 c-9 -18 -11 -32 -5 -36 5 -3 16 8 25 24 9 18 11 32 5 36 -5 3 -16 -8 -25 -24z"/>
 <path d="M76 701 c-4 -5 -2 -12 4 -16 6 -4 8 -10 5 -15 -3 -5 -1 -11 4 -14 5 -4 12 -2 15 3 4 5 2 12 -4 16 -6 4 -8 10 -5 15 3 5 1 11 -4 14 -5 4 -12 2 -15 -3z"/>
 <path d="M1620 391 c-6 -12 -6 -22 -1 -26 6 -3 15 3 21 14 6 12 6 22 1 26 -6 3 -15 -3 -21 -14z"/>
 <path d="M555 171 c-3 -6 3 -15 14 -21 12 -6 22 -6 26 -1 3 6 -3 15 -14 21 -12 6 -22 6 -26 1z"/>
 <path d="M696 111 c-4 -5 -2 -12 4 -16 5 -3 10 -3 10 1 0 3 7 1 15 -6 8 -7 15 -9 15 -5 0 4 6 2 14 -4 10 -8 16 -9 21 -1 3 5 4 11 1 11 -16 4 -26 7 -31 9 -3 1 -8 3 -12 4 -5 1 -13 5 -20 9 -6 4 -14 3 -17 -2z"/>
 <path d="M945 51 c-7 -12 12 -24 25 -16 11 7 4 25 -10 25 -5 0 -11 -4 -15 -9z"/>
 </g>

<g fill="#dad49b" stroke="none">
 <path d="M975 1751 c-7 -12 12 -24 25 -16 11 7 4 25 -10 25 -5 0 -11 -4 -15 -9z"/>
 <path d="M696 1693 c-4 -5 -12 -9 -17 -9 -5 -1 -11 -3 -14 -4 -3 -1 -9 -4 -15 -5 -5 -1 -12 -4 -15 -5 -3 -1 -9 -3 -15 -4 -5 0 -10 -4 -10 -8 0 -8 4 -9 15 -7 3 1 10 3 15 4 6 1 12 4 15 5 3 1 10 4 15 5 6 1 12 4 15 5 3 1 10 3 15 4 10 1 15 14 8 22 -3 2 -8 1 -12 -3z"/>
 <path d="M1355 1690 c-3 -5 12 -18 34 -30 23 -11 42 -16 46 -10 3 5 -12 18 -34 30 -23 11 -42 16 -46 10z"/>
 <path d="M281 1486 c-7 -8 -8 -17 -3 -20 6 -3 15 1 21 8 7 8 8 17 3 20 -6 3 -15 -1 -21 -8z"/>
 <path d="M100 1251 c-6 -12 -6 -22 -1 -26 6 -3 15 3 21 14 6 12 6 22 1 26 -6 3 -15 -3 -21 -14z"/>
 <path d="M45 1060 c-4 -6 -3 -16 3 -22 6 -6 12 -6 17 2 4 6 3 16 -3 22 -6 6 -12 6 -17 -2z"/>
 <path d="M76 711 c-4 -5 -2 -12 4 -16 6 -4 8 -10 5 -15 -3 -5 -1 -11 4 -14 5 -4 12 -2 15 3 4 5 2 12 -4 16 -6 4 -8 10 -5 15 3 5 1 11 -4 14 -5 4 -12 2 -15 -3z"/>
 <path d="M1680 521 c-17 -34 -26 -63 -20 -66 5 -3 23 21 40 54 17 34 26 63 20 66 -5 3 -23 -21 -40 -54z"/>
 <path d="M256 402 c-3 -6 1 -15 8 -21 8 -7 17 -8 20 -3 3 6 -1 15 -8 21 -8 7 -17 8 -20 3z"/>
 <path d="M306 352 c-3 -5 3 -17 13 -26 11 -10 22 -13 25 -8 3 5 -3 17 -13 26 -11 10 -22 13 -25 8z"/>
 <path d="M505 201 c-3 -6 3 -15 14 -21 12 -6 22 -6 26 -1 3 6 -3 15 -14 21 -12 6 -22 6 -26 1z"/>
 <path d="M736 101 c-4 -5 -2 -12 4 -16 5 -3 10 -3 10 1 0 3 6 1 14 -5 10 -8 16 -9 21 -1 3 5 4 11 1 11 -3 1 -9 2 -13 3 -5 1 -13 5 -20 9 -6 4 -14 3 -17 -2z"/>
 </g>

<g fill="#90d0d2" stroke="none">
 <path d="M1266 1731 c-4 -5 -2 -12 4 -16 5 -3 10 -3 10 1 0 3 6 1 14 -5 10 -8 16 -9 21 -1 3 5 4 11 1 11 -3 1 -9 2 -13 3 -5 1 -13 5 -20 9 -6 4 -14 3 -17 -2z"/>
 <path d="M1345 1701 c-3 -6 3 -15 14 -21 12 -6 22 -6 26 -1 3 6 -3 15 -14 21 -12 6 -22 6 -26 1z"/>
 <path d="M1405 1671 c-3 -6 3 -15 14 -21 12 -6 22 -6 26 -1 3 6 -3 15 -14 21 -12 6 -22 6 -26 1z"/>
 <path d="M1616 1522 c-3 -6 1 -15 8 -21 8 -7 17 -8 20 -3 3 6 -1 15 -8 21 -8 7 -17 8 -20 3z"/>
 <path d="M226 1441 c-21 -21 -34 -41 -29 -44 6 -4 27 11 47 32 21 21 34 41 29 44 -6 4 -27 -11 -47 -32z"/>
 <path d="M1686 1452 c-3 -6 1 -15 8 -21 8 -7 17 -8 20 -3 3 6 -1 15 -8 21 -8 7 -17 8 -20 3z"/>
 <path d="M1836 1221 c-4 -5 -2 -12 4 -16 6 -4 8 -10 5 -15 -3 -5 -1 -11 4 -14 5 -4 12 -2 15 3 4 5 2 12 -4 16 -6 4 -8 10 -5 15 3 5 1 11 -4 14 -5 4 -12 2 -15 -3z"/>
 <path d="M79 1206 c-1 -3 -2 -9 -3 -13 -1 -5 -5 -13 -9 -20 -4 -6 -3 -14 3 -18 5 -3 11 -4 11 -1 1 3 2 9 3 14 1 4 5 12 9 19 4 6 3 14 -3 18 -5 3 -11 4 -11 1z"/>
 <path d="M35 1020 c-4 -6 -3 -16 3 -22 6 -6 12 -6 17 2 4 6 3 16 -3 22 -6 6 -12 6 -17 -2z"/>
 <path d="M35 890 c-4 -6 -3 -16 3 -22 6 -6 12 -6 17 2 4 6 3 16 -3 22 -6 6 -12 6 -17 -2z"/>
 <path d="M1839 836 c-1 -3 -2 -9 -3 -13 -1 -5 -5 -13 -9 -20 -4 -6 -3 -14 3 -18 5 -3 11 -4 11 -1 1 3 2 9 3 14 1 4 5 12 9 19 4 6 3 14 -3 18 -5 3 -11 4 -11 1z"/>
 <path d="M1690 531 c-11 -23 -16 -42 -10 -46 5 -3 18 12 30 34 11 23 16 42 10 46 -5 3 -18 -12 -30 -34z"/>
 <path d="M1506 221 c-15 -16 -23 -31 -18 -35 5 -3 21 8 36 23 15 16 23 31 18 35 -5 3 -21 -8 -36 -23z"/>
 <path d="M686 111 c-4 -5 -2 -12 4 -16 5 -3 10 -3 10 1 0 3 6 1 14 -5 10 -8 16 -9 21 -1 3 5 4 11 1 11 -3 1 -9 2 -13 3 -5 1 -13 5 -20 9 -6 4 -14 3 -17 -2z"/>
 <path d="M1285 80 c-4 -6 -10 -8 -15 -5 -5 3 -11 1 -14 -4 -4 -5 -2 -12 3 -15 5 -4 12 -2 16 4 4 6 10 8 15 5 5 -3 11 -1 14 4 4 5 2 12 -3 15 -5 4 -12 2 -16 -4z"/>
 </g>

<g fill="#f0d58b" stroke="none">
 <path d="M995 1751 c-7 -12 12 -24 25 -16 11 7 4 25 -10 25 -5 0 -11 -4 -15 -9z"/>
 <path d="M1115 1751 c-7 -12 12 -24 25 -16 11 7 4 25 -10 25 -5 0 -11 -4 -15 -9z"/>
 <path d="M457 1599 c-21 -11 -35 -24 -32 -29 4 -6 23 -1 46 10 22 12 37 25 34 30 -7 12 -2 13 -48 -11z"/>
 <path d="M1596 1532 c-3 -5 3 -17 13 -26 11 -10 22 -13 25 -8 3 5 -3 17 -13 26 -11 10 -22 13 -25 8z"/>
 <path d="M261 1466 c-7 -8 -8 -17 -3 -20 6 -3 15 1 21 8 7 8 8 17 3 20 -6 3 -15 -1 -21 -8z"/>
 <path d="M1686 1442 c-3 -6 1 -15 8 -21 8 -7 17 -8 20 -3 3 6 -1 15 -8 21 -8 7 -17 8 -20 3z"/>
 <path d="M206 1411 c-10 -11 -13 -22 -8 -25 5 -3 17 3 26 13 10 11 13 22 8 25 -5 3 -17 -3 -26 -13z"/>
 <path d="M1797 1294 c-9 -10 22 -66 33 -59 6 4 4 18 -5 36 -17 31 -18 32 -28 23z"/>
 <path d="M89 1216 c-1 -3 -2 -9 -3 -13 -1 -5 -5 -13 -9 -20 -4 -6 -3 -14 3 -18 5 -3 11 -4 11 -1 1 3 2 9 3 14 1 4 5 12 9 19 4 6 3 14 -3 18 -5 3 -11 4 -11 1z"/>
 <path d="M1839 856 c-1 -3 -2 -9 -3 -13 -1 -5 -5 -14 -9 -20 -5 -7 -5 -13 -1 -13 3 0 1 -6 -5 -14 -8 -10 -9 -16 -1 -21 5 -3 11 -4 11 -1 4 16 7 26 9 31 1 3 3 8 4 13 1 4 5 12 9 19 4 6 3 14 -3 18 -5 3 -11 4 -11 1z"/>
 <path d="M1770 691 c-11 -23 -16 -42 -10 -46 5 -3 18 12 30 34 11 23 16 42 10 46 -5 3 -18 -12 -30 -34z"/>
 <path d="M117 614 c-9 -10 22 -66 33 -59 6 4 4 18 -5 36 -17 31 -18 32 -28 23z"/>
 <path d="M1720 601 c-6 -12 -6 -22 -1 -26 6 -3 15 3 21 14 6 12 6 22 1 26 -6 3 -15 -3 -21 -14z"/>
 <path d="M1620 401 c-17 -34 -26 -63 -20 -66 5 -3 23 21 40 54 17 34 26 63 20 66 -5 3 -23 -21 -40 -54z"/>
 <path d="M276 382 c-3 -5 3 -17 13 -26 11 -10 22 -13 25 -8 3 5 -3 17 -13 26 -11 10 -22 13 -25 8z"/>
 <path d="M1501 226 c-18 -19 -29 -36 -23 -39 5 -4 23 9 41 27 18 19 29 36 23 39 -5 4 -23 -9 -41 -27z"/>
 <path d="M545 180 c-3 -5 12 -18 34 -30 23 -11 42 -16 46 -10 3 5 -12 18 -34 30 -23 11 -42 16 -46 10z"/>
 <path d="M1304 96 c-10 -8 -22 -14 -26 -15 -5 0 -8 -3 -8 -6 0 -4 6 -6 13 -4 1 0 10 2 21 4 24 5 41 21 29 28 -6 4 -18 0 -29 -7z"/>
 <path d="M985 51 c-7 -12 12 -24 25 -16 11 7 4 25 -10 25 -5 0 -11 -4 -15 -9z"/>
 <path d="M1105 51 c-7 -12 12 -24 25 -16 11 7 4 25 -10 25 -5 0 -11 -4 -15 -9z"/>
 </g>

<g fill="#7ecfde" stroke="none">
 <path d="M1035 1760 c-3 -5 0 -13 9 -16 21 -8 61 -1 61 11 0 14 -62 19 -70 5z"/>
 <path d="M706 1703 c-4 -5 -12 -9 -17 -9 -5 -1 -11 -3 -14 -4 -3 -1 -9 -4 -15 -5 -5 -1 -12 -4 -15 -5 -3 -1 -9 -4 -15 -5 -5 -1 -12 -4 -15 -5 -3 -1 -9 -3 -15 -4 -5 0 -10 -4 -10 -8 0 -8 4 -9 15 -7 3 1 10 3 15 4 6 1 12 4 15 5 3 1 10 4 15 5 6 1 12 4 15 5 3 1 10 4 15 5 6 1 12 4 15 5 3 1 10 3 15 4 10 1 15 14 8 22 -3 2 -8 1 -12 -3z"/>
 <path d="M455 1646 c-11 -8 -14 -16 -8 -19 6 -4 18 0 28 7 11 8 14 16 8 19 -6 4 -18 0 -28 -7z"/>
 <path d="M1596 1542 c-3 -6 1 -15 8 -21 8 -7 17 -8 20 -3 3 6 -1 15 -8 21 -8 7 -17 8 -20 3z"/>
 <path d="M271 1486 c-7 -8 -8 -17 -3 -20 6 -3 15 1 21 8 7 8 8 17 3 20 -6 3 -15 -1 -21 -8z"/>
 <path d="M1706 1432 c-3 -6 1 -15 8 -21 8 -7 17 -8 20 -3 3 6 -1 15 -8 21 -8 7 -17 8 -20 3z"/>
 <path d="M2 910 c0 -19 2 -27 5 -17 2 9 2 25 0 35 -3 9 -5 1 -5 -18z"/>
 <path d="M257 393 c-4 -6 11 -27 32 -47 21 -21 41 -34 44 -29 4 6 -11 27 -32 47 -21 21 -41 34 -44 29z"/>
 <path d="M1541 256 c-7 -8 -8 -17 -3 -20 6 -3 15 1 21 8 7 8 8 17 3 20 -6 3 -15 -1 -21 -8z"/>
 <path d="M1347 109 c-21 -11 -35 -24 -32 -29 4 -6 23 -1 46 10 22 12 37 25 34 30 -7 12 -2 13 -48 -11z"/>
 <path d="M746 91 c-4 -5 -2 -12 4 -16 5 -3 10 -3 10 1 0 3 6 1 14 -5 10 -8 16 -9 21 -1 3 5 4 11 1 11 -3 1 -9 2 -13 3 -5 1 -13 5 -20 9 -6 4 -14 3 -17 -2z"/>
 <path d="M1035 40 c-3 -5 -2 -11 2 -13 14 -8 63 -2 66 8 3 12 -61 17 -68 5z"/>
 </g>

<g fill="#77cfe5" stroke="none">
 <path d="M930 1787 c-3 -3 -41 -10 -85 -16 -158 -22 -355 -96 -505 -190 -71 -44 -181 -150 -225 -217 -91 -136 -127 -318 -105 -526 7 -62 19 -133 27 -158 91 -275 332 -507 650 -623 204 -74 538 -76 682 -3 156 80 235 166 336 367 42 84 87 170 100 193 98 167 135 371 101 548 -23 115 -77 207 -194 330 -135 141 -312 255 -434 280 -57 11 -340 23 -348 15z m328 -68 c242 -64 481 -274 580 -511 24 -57 27 -75 26 -183 -1 -138 -23 -221 -94 -355 -22 -41 -76 -145 -119 -230 -92 -180 -125 -221 -226 -288 -126 -85 -271 -119 -440 -102 -372 36 -700 241 -845 531 -64 126 -84 213 -84 359 -1 182 45 324 143 448 107 134 319 248 593 318 185 46 324 50 466 13z"/>
 </g>

<g fill="#ffd67f" stroke="none">
 <path d="M990 1753 c-162 -17 -387 -85 -532 -159 -206 -107 -328 -246 -389 -444 -33 -107 -34 -300 -1 -413 105 -363 468 -646 896 -697 224 -27 409 35 559 186 47 47 76 95 180 298 141 273 167 343 174 471 9 150 -33 267 -146 406 -198 247 -480 380 -741 352z"/>
 </g>
</svg>