<!DOCTYPE svg PUBLIC "-//W3C//DTD SVG 1.1//EN" "http://www.w3.org/Graphics/SVG/1.1/DTD/svg11.dtd">
<svg version="1.1" xmlns="http://www.w3.org/2000/svg" >
<g id="layer1" fill="#79d1e7" stroke="none">
 <path d="M1195 3380 c-16 -4 -47 -8 -67 -9 -48 -1 -204 -54 -293 -98 -351 -176 -638 -511 -764 -889 -30 -92 -42 -147 -62 -294 -13 -96 -7 -428 10 -554 42 -315 231 -729 459 -1009 89 -109 258 -267 354 -330 212 -142 403 -197 675 -197 205 0 286 19 593 139 124 49 277 105 340 126 386 126 690 357 828 630 48 97 91 226 104 315 16 120 22 423 9 550 -63 633 -353 1032 -981 1350 -416 210 -676 281 -1018 279 -86 -1 -170 -5 -187 -9z"/>
 </g>
</svg>